<?xml version="1.0" encoding="utf-8"?>
<!-- Generator: Adobe Illustrator 27.5.0, SVG Export Plug-In . SVG Version: 6.00 Build 0)  -->
<svg version="1.1" xmlns="http://www.w3.org/2000/svg" xmlns:xlink="http://www.w3.org/1999/xlink" x="0px" y="0px"
	 viewBox="0 0 500 500" style="enable-background:new 0 0 500 500;" xml:space="preserve">
<g id="BACKGROUND">
	<rect style="fill:#F7F2EC;" width="500" height="500"/>
</g>
<g id="OBJECTS">
	<path style="fill:#F7EBDC;" d="M451.669,180.312c-5.144-33.202-16.103-66.353-37.552-92.213
		c-21.448-25.861-54.636-43.434-88.085-40.273c-26.656,2.519-50.539,17.387-76.642,23.35
		c-48.771,11.141-105.688-8.236-146.518,20.671c-11.899,8.424-20.993,20.238-28.729,32.596
		c-40.224,64.262-39.465,176.216-8.484,245.41h355.884C450.929,311.853,461.623,244.564,451.669,180.312z"/>
	<g>
		<g>
			<rect x="81.541" y="41.612" style="fill:#B47157;" width="117.739" height="284.708"/>
			<rect x="89.35" y="49.421" style="fill:#F7F2EC;" width="102.121" height="269.091"/>
			<rect x="191.471" y="41.612" style="fill:#474640;" width="7.809" height="284.708"/>
			<rect x="139.301" y="49.421" style="fill:#C9B1A5;" width="2.219" height="269.091"/>
			<g>
				
					<rect x="143.205" y="43.857" transform="matrix(-1.836970e-16 1 -1 -1.836970e-16 243.1364 -45.493)" style="fill:#C9B1A5;" width="2.219" height="109.93"/>
				
					<rect x="143.205" y="129.002" transform="matrix(-1.836970e-16 1 -1 -1.836970e-16 328.2815 39.6521)" style="fill:#C9B1A5;" width="2.219" height="109.93"/>
				
					<rect x="143.205" y="214.147" transform="matrix(-1.836970e-16 1 -1 -1.836970e-16 413.4266 124.7972)" style="fill:#C9B1A5;" width="2.219" height="109.93"/>
			</g>
		</g>
		<g>
			<rect x="191.131" y="41.612" style="fill:#B47157;" width="117.739" height="284.708"/>
			<rect x="198.939" y="49.421" style="fill:#F7F2EC;" width="102.121" height="269.091"/>
			<rect x="301.061" y="41.612" style="fill:#C9B1A5;" width="7.809" height="284.708"/>
			<rect x="248.89" y="49.421" style="fill:#C9B1A5;" width="2.219" height="269.091"/>
			<g>
				
					<rect x="252.795" y="43.857" transform="matrix(-1.836970e-16 1 -1 -1.836970e-16 352.7261 -155.0827)" style="fill:#C9B1A5;" width="2.219" height="109.93"/>
				
					<rect x="252.795" y="129.002" transform="matrix(-1.836970e-16 1 -1 -1.836970e-16 437.8712 -69.9376)" style="fill:#C9B1A5;" width="2.219" height="109.93"/>
				
					<rect x="252.795" y="214.147" transform="matrix(-1.836970e-16 1 -1 -1.836970e-16 523.0163 15.2075)" style="fill:#C9B1A5;" width="2.219" height="109.93"/>
			</g>
		</g>
		<g>
			<rect x="300.72" y="41.612" style="fill:#B47157;" width="117.739" height="284.708"/>
			<rect x="308.529" y="49.421" style="fill:#F7F2EC;" width="102.121" height="269.091"/>
			<rect x="410.65" y="41.612" style="fill:#B47157;" width="7.809" height="284.708"/>
			<rect x="358.48" y="49.421" style="fill:#C9B1A5;" width="2.219" height="269.091"/>
			<g>
				
					<rect x="358.48" y="47.761" transform="matrix(-1.836970e-16 1 -1 -1.836970e-16 458.4114 -260.768)" style="fill:#C9B1A5;" width="2.219" height="102.121"/>
				
					<rect x="358.48" y="132.906" transform="matrix(-1.836970e-16 1 -1 -1.836970e-16 543.5565 -175.6229)" style="fill:#C9B1A5;" width="2.219" height="102.121"/>
				
					<rect x="358.48" y="218.051" transform="matrix(-1.836970e-16 1 -1 -1.836970e-16 628.7016 -90.4778)" style="fill:#C9B1A5;" width="2.219" height="102.121"/>
			</g>
		</g>
	</g>
	<g>
		<g>
			<path style="fill:#804533;" d="M62.82,370.092L62.82,370.092c-1.453,0-2.443-1.471-1.897-2.817l10.072-24.815H83.8
				l-19.319,26.783C64.096,369.776,63.478,370.092,62.82,370.092z"/>
			<path style="fill:#804533;" d="M174.541,370.092L174.541,370.092c1.453,0,2.443-1.471,1.897-2.817l-10.072-24.815h-12.805
				l19.319,26.783C173.265,369.776,173.883,370.092,174.541,370.092z"/>
		</g>
		<path style="fill:#FFFEFC;" d="M173.362,349.047H63.999c-5.868,0-10.625-4.757-10.625-10.625v-42.883
			c0-5.868,4.757-10.625,10.625-10.625h109.363c5.868,0,10.625,4.757,10.625,10.625v42.883
			C183.988,344.29,179.231,349.047,173.362,349.047z"/>
		<path style="fill:none;stroke:#DDDAD3;stroke-linecap:round;stroke-linejoin:round;stroke-miterlimit:10;" d="M172.228,330.56
			H65.134c-1.885,0-3.414-1.528-3.414-3.414v-27.705c0-1.885,1.528-3.414,3.414-3.414h107.094c1.885,0,3.414,1.528,3.414,3.414
			v27.705C175.641,329.032,174.113,330.56,172.228,330.56z"/>
		<path style="fill:#DDDAD3;" d="M135.616,304.253h-33.87c-0.514,0-0.93-0.416-0.93-0.93v-6.366c0-0.513,0.416-0.93,0.93-0.93h33.87
			c0.514,0,0.93,0.416,0.93,0.93v6.366C136.545,303.837,136.129,304.253,135.616,304.253z"/>
	</g>
	
		<line style="fill:none;stroke:#332737;stroke-linecap:round;stroke-linejoin:round;stroke-miterlimit:10;" x1="30.717" y1="370.05" x2="469.282" y2="370.05"/>
	<g>
		<path style="fill:#FDD3C3;" d="M455.534,426.711c-0.37,7.623-15.42,13.445-37.81,17.866c-8.29,1.648-17.59,3.097-27.52,4.374
			c-9.38,1.22-19.32,2.277-29.52,3.202c-8.97,0.819-18.15,1.534-27.3,2.154c-13.76,0.934-27.47,1.668-40.43,2.239
			c-5.65,0.238-11.17,0.457-16.47,0.648c-22.88,0.819-41.95,1.115-52.42,1.182c-3.99,0.019-8.14,0.019-12.44-0.01
			c-5.01-0.029-10.2-0.114-15.53-0.238c-17.37-0.41-36.12-1.343-54.32-3.078c-11.6-1.096-22.97-2.535-33.61-4.364
			c-38.18-6.555-67.02-18.257-63.4-38.485c0.73-4.107,10.84-7.813,26.52-11.024c9.62-1.972,21.34-3.764,34.28-5.345
			c11.45-1.401,23.85-2.639,36.61-3.716c10.27-0.858,20.76-1.61,31.17-2.249c17.12-1.039,33.99-1.763,49.22-2.134
			c0.22-0.009,0.44-0.009,0.67-0.019c9.77-0.219,21.31-0.162,33.95,0.2c12.6,0.353,26.3,0.991,40.4,1.906
			c9.5,0.619,19.18,1.363,28.85,2.239c14.83,1.334,29.61,2.973,43.6,4.907c8.13,1.115,16,2.334,23.45,3.659
			C429.714,407.035,456.064,415.772,455.534,426.711z"/>
		<path style="fill:#F9B39A;" d="M141.774,455.049c-11.6-1.096-22.97-2.535-33.61-4.364c-1.51-5.669-3.23-11.205-7.37-15.379
			c-4.5-4.545-11.14-6.622-16.02-10.796c-5.2-4.431-7.97-10.824-10.58-16.989c-0.87-2.039-1.88-4.174-2.91-6.346
			c9.62-1.972,21.34-3.764,34.28-5.345c0.03,0.048,0.05,0.086,0.08,0.133c5.71,9.462,1.97,22.535,8.79,31.301
			c6.05,7.785,18.45,9.414,23.89,17.59C140.354,447.893,141.124,451.438,141.774,455.049z"/>
		<path style="fill:#F9B39A;" d="M211.624,458.365c-5.01-0.029-10.2-0.114-15.53-0.238c-3.72-7.337-8.11-14.188-14.48-19.629
			c-4.89-4.183-10.76-7.318-15.25-11.892c-4.36-4.431-7.2-9.986-10.19-15.341c-3.66-6.556-8.71-12.873-14-19.152
			c10.27-0.858,20.76-1.61,31.17-2.249c2.9,5.65,6.2,11.063,10.2,16.065c10.73,13.416,26.96,25.022,28.01,41.849
			C211.774,451.304,211.284,454.858,211.624,458.365z"/>
		<path style="fill:#F9B39A;" d="M292.954,456.545c-5.65,0.238-11.17,0.457-16.47,0.648c-0.59-0.553-1.2-1.058-1.82-1.525
			c-4.56-3.402-9.8-6.117-13.45-10.395c-6.96-8.175-6.49-19.915-10.8-29.605c-5.26-11.825-16.98-19.524-27.18-27.957
			c9.77-0.219,21.31-0.162,33.95,0.2c1.26,3.897,2.67,7.728,4.59,11.358c4.69,8.861,12.27,16.332,15.46,25.775
			c1.9,5.622,2.15,11.701,4.47,17.18C284.074,447.845,288.344,452.286,292.954,456.545z"/>
		<path style="fill:#F9B39A;" d="M360.684,452.152c-8.97,0.819-18.15,1.534-27.3,2.154c-3.49-3.306-6.85-6.727-9.76-10.481
			c-12.34-15.96-15.8-37.028-26.04-54.007c9.5,0.619,19.18,1.363,28.85,2.239c-0.24,1.934-0.37,3.84-0.31,5.689
			c0.32,9.719,6.51,18.266,12.63,26.041C346.094,433.114,353.804,442.443,360.684,452.152z"/>
		<path style="fill:#F9B39A;" d="M417.724,444.577c-8.29,1.648-17.59,3.097-27.52,4.374c-1.23-2.573-2.08-5.336-2.86-8.061
			c-4.33-15.179-7.59-31.444-17.31-43.926c8.13,1.115,16,2.334,23.45,3.659C400.424,415.992,406.994,431.523,417.724,444.577z"/>
		<path style="fill:none;stroke:#332737;stroke-linecap:round;stroke-linejoin:round;stroke-miterlimit:10;" d="M75.228,433.705
			c0,0,39.273,16.352,123.549,17.407"/>
		<path style="fill:none;stroke:#332737;stroke-linecap:round;stroke-linejoin:round;stroke-miterlimit:10;" d="M238.007,451.111
			c0,0,56.885-1.055,74.402-5.275"/>
	</g>
	<g>
		<path style="fill:#F4A666;" d="M163.246,412.609c40.884,0,153.524,0,174.383,0s58.962-30.869,48.21-69.049
			c-10.752-38.18-52.844-123.476-161.312-123.476C105.532,220.083,72.299,412.609,163.246,412.609z"/>
		<path style="fill:none;stroke:#332737;stroke-linecap:round;stroke-linejoin:round;stroke-miterlimit:10;" d="M278.414,299.426
			c-0.942-15.806,4.125-32.198,14.183-45.88"/>
		<path style="fill:none;stroke:#332737;stroke-linecap:round;stroke-linejoin:round;stroke-miterlimit:10;" d="M284.446,291.18
			c1.982-4.49,4.418-8.873,7.846-12.629c3.429-3.755,7.918-6.868,13.137-8.329"/>
		<path style="fill:none;stroke:#332737;stroke-linecap:round;stroke-linejoin:round;stroke-miterlimit:10;" d="M252.558,359.984
			c0,0,58.554-13.631,84.758-10.457"/>
		<path style="fill:none;stroke:#332737;stroke-linecap:round;stroke-linejoin:round;stroke-miterlimit:10;" d="M166.993,344.746
			c0,0,34.314-3.12,112.535,25.268"/>
		<path style="fill:none;stroke:#332737;stroke-linecap:round;stroke-linejoin:round;stroke-miterlimit:10;" d="M178.223,319.478
			c0,0,21.344,11.02,33.6,30.544"/>
		<g>
			<path style="fill:#B55C3B;" d="M410.174,398.903c6.146,4.425,12.342,15.487,16.45,15.485s10.657-5.779,16.74-9.513
				c3.136-1.925,12.612-5.041,12.61-8.925c-0.002-2.893-8.452-1.329-22.196-1c-4.706,0.113-6.624-3.657-11.154-9.567
				L410.174,398.903z"/>
			<path style="fill:#452217;" d="M251.592,217.088c0,0,12.491-1.499,17.997,8.68c0,0,10.371-19.702-6.957-40.511
				c0,0-11.462,5.146-12.347,12.836C249.399,205.783,251.592,217.088,251.592,217.088z"/>
			<path style="fill:#5E2F1F;" d="M262.632,185.257c0,0,10.761,25.119,6.957,40.511c0,0,16.553,2.739,14.567-27.18
				c-1.986-29.92-5.904-53.753-25.544-50.773c0,0-9.21-6.455-20.135-4.965c-10.925,1.49-28.638,44.62-5.879,66.004l4.485-33.26
				L262.632,185.257z"/>
			<path style="fill:#287194;" d="M275.083,301.385c0,0,56.384-6.824,64.69-5.069c11.742,2.481,91.128,91.478,91.128,91.478
				l-24.243,21.076l-74.471-78.569c0,0-76.008,21.931-93.709,15.38c-22.357-8.274-16.93-44.296-16.93-44.296H275.083z"/>
			<path style="fill:none;stroke:#558CAA;stroke-linecap:round;stroke-linejoin:round;stroke-miterlimit:10;" d="M410.174,405.813
				c-17.226-18.759-32.655-34.227-50.146-50.721c-3.306-3.117-6.624-6.299-9.058-10.136c-1.579-2.49-2.767-5.228-4.547-7.579
				c-4.102-5.416-10.773-8.11-17.111-10.559c0,0-21.154,3.751-44.866,10.683"/>
			<path style="fill:#B55C3B;" d="M284.321,334.913c6.529-3.837,13.721-14.28,17.811-13.897c4.09,0.382,10.077,6.74,15.789,11.02
				c2.945,2.207,12.092,6.186,11.731,10.053c-0.269,2.88-8.538,0.542-22.193-1.056c-4.676-0.548-6.934,3.029-11.99,8.495
				L284.321,334.913z"/>
			<path style="fill:#287194;" d="M208.219,301.385c0,0-12.371,23.708-1.822,41.801c6.749,11.576,86.83,26.052,98.008,23.557
				c11.178-2.496,13.71-17.756,7.916-26.659c-5.795-8.903-71.002-38.698-71.002-38.698H208.219z"/>
			<path style="fill:none;stroke:#558CAA;stroke-linecap:round;stroke-linejoin:round;stroke-miterlimit:10;" d="M213.473,300.825
				c-1.65,4.148-1.601,7.549-1.218,11.402s1.878,7.595,1.698,11.463c-0.128,2.775-1.119,5.477-1.061,8.255
				c0.087,4.203,2.626,8.046,5.878,10.711c12.823,10.512,45.796,19.754,66.68,23.103"/>
			<path style="fill:none;stroke:#332737;stroke-linecap:round;stroke-linejoin:round;stroke-miterlimit:10;" d="M281.634,321.005
				c0,0,23.292,12.022,28.131,16.497"/>
			<path style="fill:#B55C3B;" d="M250.388,268.599l78.811,31.74l-2.433,10.986c0,0-68.738-8.003-96.909-28.333
				C229.857,282.992,229.838,268.922,250.388,268.599z"/>
			<path style="fill:#452217;" d="M205.129,221.683c0,0,5.613-2.106,28.425,1.638c22.812,3.743,46.088,3.275,48.08,7.019
				c0,0-11.623,6.785-33.419,4.913C226.419,233.381,205.129,221.683,205.129,221.683z"/>
			<polygon style="fill:#B55C3B;" points="235.812,173.51 232.024,215.176 251.592,217.088 256.98,176.306 			"/>
			<path style="fill:#8C472F;" d="M252.68,208.853l2.194-16.609l-13.465-1.779C241.409,190.465,239.562,207.121,252.68,208.853z"/>
			<path style="fill:#B55C3B;" d="M267.971,180.317c-0.199,1.063-0.523,2.103-0.782,3.155c-2.135,8.663-9.776,16.024-15.11,15.025
				c-8.947-1.677-19.478-8.48-16.522-24.254c1.691-9.027,10.32-14.985,19.273-13.307
				C263.777,162.612,270.076,169.084,267.971,180.317z"/>
			<path style="fill:#B55C3B;" d="M238.384,180.204c-0.549,2.931-3.371,4.862-6.302,4.313c-2.931-0.549-4.862-3.371-4.313-6.302
				s3.371-4.862,6.302-4.313S238.933,177.273,238.384,180.204z"/>
			<path style="fill:none;stroke:#332737;stroke-linecap:round;stroke-linejoin:round;stroke-miterlimit:10;" d="M255.757,180.164
				c0,0,2.239,2.126,1.908,3.355c-0.293,1.09-3.007,0.251-3.007,0.251"/>
			<path style="fill:#D65A5D;" d="M250.265,183.487c-0.216,2.209-2.183,3.824-4.392,3.608c-2.209-0.216-3.824-2.183-3.608-4.392
				c0.216-2.209,2.183-3.824,4.392-3.608C248.866,179.311,250.482,181.278,250.265,183.487z"/>
			<path style="fill:#D65A5D;" d="M266.632,185.649c-0.216,2.209-2.182,3.824-4.392,3.608c-2.209-0.216-3.824-2.182-3.608-4.391
				c0.216-2.209,2.182-3.824,4.391-3.608C265.232,181.474,266.848,183.44,266.632,185.649z"/>
			<path style="fill:none;stroke:#332737;stroke-linecap:round;stroke-linejoin:round;stroke-miterlimit:10;" d="M248.215,189.001
				c0.727,0.634,1.58,1.041,2.505,1.193"/>
			<path style="fill:none;stroke:#332737;stroke-linecap:round;stroke-linejoin:round;stroke-miterlimit:10;" d="M233.523,177.344
				c0,0-2.562-0.306-2.771,1.738c-0.21,2.045,2.802,2.03,2.802,2.03"/>
			<path style="fill:#5E2F1F;" d="M267.189,183.472c0,0,0.637-15.976-8.576-21.472c0,0-4.901,13.117-23.084,12.399
				c0,0-0.381-18.329,23.084-17.305C258.612,157.093,275.761,163.86,267.189,183.472z"/>
			<path style="fill:#B55C3B;" d="M232.883,205.513c0,0-1.54,7.492-9.534,9.432c-7.994,1.941-15.246,6.626-16.951,9.95
				c0,0,25.75,14.101,73.131,7.316c0,0-0.881-9.199-7.586-11.034c-6.705-1.835-19.387-5.213-19.262-12.324L232.883,205.513z"/>
			<path style="fill:#FFFEFC;" d="M205.129,221.683c0,0-18.968,32.26-22.694,44.713c-2.799,9.356-0.84,17.262,5.399,24.749
				c0,0,6.125-13.812,20.531-14.393l-0.145,24.633h66.863c0,0-3.743-21.041-3.743-32.293c0-8.501,12.982-19.802,10.294-38.753
				C281.634,230.339,243.597,234.487,205.129,221.683z"/>
			
				<line style="fill:none;stroke:#DDDAD3;stroke-linecap:round;stroke-linejoin:round;stroke-miterlimit:10;" x1="273.598" y1="293.587" x2="211.824" y2="296.028"/>
			<path style="fill:#B55C3B;" d="M208.365,276.752l44.695,26.019l-3.851,12.118c0,0-33.781-5.263-61.375-23.745
				C187.833,291.145,187.815,277.075,208.365,276.752z"/>
			<path style="fill:#B55C3B;" d="M249.209,314.89c0,0,6.276,1.804,8.494,1.456c3.179-0.499,5.836-3.444,6.323-3.72
				c0.486-0.276,3.9,0.888,4.513,0.646c0.613-0.242-0.832,3.375,0.08,4.036c0.912,0.661,2.2-1.036,2.562-2.851
				c0,0-0.521,5.874,0.763,5.68c1.284-0.194,1.931-2.545,1.931-2.545s-0.023,3.069,1.042,2.678c1.065-0.391,2.521-5.188,2.521-5.188
				s-0.397,1.942,1.513,0.963c1.91-0.979,0.016-7.518-0.502-8.617s-9.662-6.892-10.351-7.086c-2.99-0.843-13.177,2.07-15.038,2.43
				C253.059,302.772,248.548,310.332,249.209,314.89z"/>
			<path style="fill:none;stroke:#332737;stroke-linecap:round;stroke-linejoin:round;stroke-miterlimit:10;" d="M272.588,305.374
				c0,0,2.786,1.83,3.709,2.621s1.14,7.088,1.14,7.088"/>
			<path style="fill:none;stroke:#332737;stroke-linecap:round;stroke-linejoin:round;stroke-miterlimit:10;" d="M271.747,308.67
				c0,0,2.064,0.62,2.324,1.144c0.495,0.999-0.196,7.777-0.196,7.777"/>
			<path style="fill:none;stroke:#332737;stroke-linecap:round;stroke-linejoin:round;stroke-miterlimit:10;" d="M268.714,309.593
				c0,0,2.318,0.527,2.478,1.187c0.16,0.659-0.01,3.676-0.01,3.676"/>
			<path style="fill:none;stroke:#332737;stroke-linecap:round;stroke-linejoin:round;stroke-miterlimit:10;" d="M212.849,234.057
				c0,0,3.509,6.109,2.34,10.32c-1.17,4.211-8.189,18.303-6.785,22.019c1.404,3.716,6.605,7.148,3.419,11.749"/>
			<path style="fill:none;stroke:#332737;stroke-linecap:round;stroke-linejoin:round;stroke-miterlimit:10;" d="M254.636,249.865
				c0.886,4.058-0.174,8.496-2.799,11.715c-2.625,3.219-6.759,5.15-10.913,5.098"/>
			<g>
				<polygon style="fill:#F5F0EA;" points="240.924,320.792 278.957,318.573 296.552,277.41 301.459,276.421 282.443,322.693 
					240.924,325.229 				"/>
				<polygon style="fill:#DDDAD3;" points="301.459,276.421 356.189,273.195 338.659,315.495 282.443,322.693 				"/>
				<path style="fill:#F5F0EA;" d="M326.495,297.93c0,3.492-2.831,6.323-6.323,6.323c-3.492,0-6.323-2.831-6.323-6.323
					c0-3.492,2.831-6.323,6.323-6.323C323.664,291.607,326.495,294.438,326.495,297.93z"/>
			</g>
			<path style="fill:none;stroke:#332737;stroke-linecap:round;stroke-linejoin:round;stroke-miterlimit:10;" d="M266.651,266.679
				c0,0,3.358-0.856,6.948-5.145"/>
			<path style="fill:none;stroke:#332737;stroke-linecap:round;stroke-linejoin:round;stroke-miterlimit:10;" d="M183.711,284.914
				c0,0,1.999-8.718,10.656-12.228"/>
			
				<line style="fill:none;stroke:#332737;stroke-linecap:round;stroke-linejoin:round;stroke-miterlimit:10;" x1="332.186" y1="330.302" x2="325.934" y2="322.854"/>
			
				<line style="fill:none;stroke:#332737;stroke-linecap:round;stroke-linejoin:round;stroke-miterlimit:10;" x1="399.55" y1="399.885" x2="421.645" y2="377.519"/>
			<path style="fill:#332737;" d="M259.495,177.926c-0.061,0.501,0.296,0.956,0.797,1.017c0.501,0.061,0.956-0.296,1.017-0.796
				c0.061-0.501-0.296-0.956-0.796-1.017C260.011,177.069,259.556,177.425,259.495,177.926z"/>
			<path style="fill:#332737;" d="M250.323,176.644c-0.061,0.501,0.296,0.956,0.797,1.017c0.501,0.061,0.956-0.296,1.017-0.796
				c0.061-0.501-0.296-0.956-0.796-1.017C250.839,175.786,250.384,176.143,250.323,176.644z"/>
			<path style="fill:none;stroke:#DDDAD3;stroke-linecap:round;stroke-linejoin:round;stroke-miterlimit:10;" d="M202.764,225.768
				c0,0,37.692,17.076,78.869,8.289"/>
		</g>
	</g>
	<g>
		<path style="fill:none;stroke:#332737;stroke-linecap:round;stroke-linejoin:round;stroke-miterlimit:10;" d="M88.334,381.483
			l-3.976,49.931c-0.135,1.699,2.129,2.401,2.978,0.922l27.927-48.654"/>
		<path style="fill:none;stroke:#332737;stroke-linecap:round;stroke-linejoin:round;stroke-miterlimit:10;" d="M138.68,370.092
			l-10.365,50.183c-0.349,1.69,1.821,2.228,2.882,0.714l34.132-48.697"/>
		<path style="fill:none;stroke:#332737;stroke-linecap:round;stroke-linejoin:round;stroke-miterlimit:10;" d="M215.022,381.483
			l3.976,49.931c0.135,1.699-2.129,2.401-2.978,0.922l-27.927-48.654"/>
		<ellipse style="fill:#EB6B00;" cx="149.328" cy="381.483" rx="71.862" ry="16.26"/>
		<path style="fill:none;stroke:#332737;stroke-linecap:round;stroke-linejoin:round;stroke-miterlimit:10;" d="M217.951,376.641
			c0,0,2.543,6.993-16.974,10.685c-19.516,3.692-44.786,4.747-54.173,4.483"/>
	</g>
	<g>
		<path style="fill:#F5F0EA;" d="M109.478,379.091c0,0,5.078,3.379,13.816,3.379c6.972,0,13.22-0.887,16.039-3.379H109.478z"/>
		<path style="fill:#FFFEFC;" d="M103.591,376.239c-0.596-3.373,12.365-4.626,20.053-4.626c7.689,0,22.171,1.188,22.171,4.173
			c0,2.985-14.331,5.078-22.171,5.078C115.805,380.865,104.289,380.188,103.591,376.239z"/>
		<path style="fill:none;stroke:#332737;stroke-linecap:round;stroke-linejoin:round;stroke-miterlimit:10;" d="M112.465,376.239
			c-0.345-1.955,7.165-2.681,11.621-2.681c4.456,0,12.848,0.688,12.848,2.418s-8.305,2.943-12.848,2.943
			C119.543,378.92,112.869,378.527,112.465,376.239z"/>
		<path style="fill:#F5F0EA;" d="M137.807,372.281c-0.721-0.059-1.483-0.204-2.282-0.448l0.711-2.194c0,0,1.287-0.024,2.816-0.354
			c2.191-0.472,4.881-1.569,5.018-4.122c0.07-1.295-1.923-1.287-3.623-1.049c-1.252,0.177-2.347,0.477-2.347,0.477l0.464-2.062
			c0,0,0.965-0.166,2.269-0.311c2.433-0.266,6.048-0.448,6.804,0.692C148.696,364.509,145.228,372.887,137.807,372.281z"/>
		<path style="fill:#F5F0EA;" d="M107.544,358.709c0,0,2.094,13.075,7.154,16.56c4.27,2.94,15.333,2.887,18.32,0.688
			c2.819-2.075,6.08-9.563,6.603-17.247H107.544z"/>
		<path style="fill:#DDDAD3;" d="M139.62,358.708c0,0-0.507,0.303-1.521,0.713c-2.156,0.877-6.611,2.25-13.339,2.25
			c-6.624,0-12.1-1.33-14.994-2.207c-1.427-0.434-2.223-0.756-2.223-0.756s5.002-2.966,17.448-2.883
			C137.437,355.911,139.62,358.708,139.62,358.708z"/>
		<path style="fill:#804533;" d="M138.1,359.422c-2.156,0.877-6.611,2.25-13.339,2.25c-6.624,0-12.1-1.33-14.994-2.207
			c2.556-0.864,7.429-2.006,15.225-1.955C132.521,357.56,136.295,358.606,138.1,359.422z"/>
	</g>
	<g>
		<path style="fill:#452217;" d="M154.449,354.618c0,0,1.846-2.068,13.714-2.727c11.868-0.659,15.824,2.727,15.824,2.727
			s-8.044,3.649-14.769,3.494C162.493,357.957,154.449,354.618,154.449,354.618z"/>
		<path style="fill:#027A5E;" d="M166.974,358.112c-0.187-6.113-2.643-15.397-7.209-19.466c-2.478-2.208-7.225-3.025-8.967-5.85
			c-1.94-3.147-2.964-7.775-2.974-11.473c-0.024-8.637,0.725-15.56,5.947-21.659c1.592,6.284,3.313,12.437,6.405,18.135
			c1.897,3.497,4.351,6.754,5.474,10.57c1.105,3.755,0.834,7.759,0.553,11.663c-0.159,2.205,0.073,4.157,1.215,6.051
			c2.638-5.186,5.174-10.243,4.35-16.002c-0.583-4.081-3.058-7.604-4.62-11.418c-2.351-5.74-6.459-11.842-5.544-17.977
			c0.915-6.134,4.747-13.055,8.945-18.189c0.814,4.738,1.389,9.911,4.296,13.993c1.699,2.386,3.926,4.526,4.718,7.346
			c1.386,4.937-2.033,9.77-3.667,14.63c-1.178,3.503-1.433,7.238-1.679,10.925c-0.202,3.034-0.405,6.069-0.607,9.103
			c2.359-3.342,5.818-5.288,8.189-8.622c3.825-5.381,1.244-12.892,1.301-19.494c0.057-6.601,0.527-13.582,7.437-18.351
			c-1.239,4.571,0.689,8.847,2.023,12.92c1.093,3.336,2.554,6.571,3.195,10.023c0.641,3.451,0.351,7.277-1.778,10.068
			c-2.544,3.336-6.996,4.427-10.602,6.572c-3.226,1.919-5.814,4.725-8.352,7.491c-1.412,1.539-2.789,3.133-3.774,4.974
			c-1.372,2.566-0.449,14.038-0.449,14.038H166.974z"/>
		<path style="fill:#5E2F1F;" d="M183.988,354.618l-3.692,20.431c0,0-2.901,3.057-11.077,3.057s-11.077-3.057-11.077-3.057
			l-3.692-20.431C154.449,354.618,167.109,359.192,183.988,354.618z"/>
		<path style="fill:none;stroke:#332737;stroke-linecap:round;stroke-linejoin:round;stroke-miterlimit:10;" d="M155.18,358.662
			c0,0,11.027,4.24,28.077,0"/>
	</g>
	<g>
		<g>
			<g>
				<path style="fill:#017457;" d="M97.609,216.765c-3.522-1.776-7.713-1.921-11.163-3.834c-3.015-1.671-5.206-4.584-6.53-7.767
					c-1.324-3.183-1.848-6.639-2.14-10.073c4.991,2.988,11.276,2.861,16.57,5.272c4.435,2.02,7.994,5.835,9.825,10.351
					c1.452,3.581,2.799,10.464,0.243,13.716C102.579,221.345,101.024,218.487,97.609,216.765z"/>
				<path style="fill:#017457;" d="M109.611,221.307c1.511-5.195-0.804-10.72-3.668-15.31c-2.863-4.591-6.392-8.952-7.674-14.208
					c-1.755-7.195,1.007-14.637,3.722-21.527c3.355,4.607,7.596,9.047,10.951,13.654c1.978,2.716,3.991,5.499,4.962,8.716
					c1.234,4.087,0.671,8.504-0.387,12.64C115.996,211.22,113.007,216.191,109.611,221.307z"/>
				<path style="fill:#017457;" d="M103.804,229.542c0,0-4.09-6.402-9.781-6.265c-5.691,0.138-11.827,0.511-16.4-2.136
					C77.623,221.142,82.839,238.785,103.804,229.542z"/>
				<path style="fill:#017457;" d="M80.179,241.634c1.945,0.243,4.009,0.468,5.79-0.351c0.852-0.392,1.583-1.001,2.369-1.512
					c3.778-2.455,9.006-2.45,12.779,0.013c0.653,0.426,1.303,0.98,1.469,1.742c-2.209-0.035-4.873,0.135-6.963,0.851
					c-2.087,0.715-3.859,2.125-5.852,3.071c-1.993,0.947-4.495,1.371-6.315,0.125C82.274,244.764,80.96,242.833,80.179,241.634z"/>
				<path style="fill:#017457;" d="M106.411,255.225l-0.628-0.01c0.141-8.592-1.929-12.262-3.69-13.829
					c-1.74-1.548-3.486-1.334-3.502-1.333l-0.087-0.621c0.08-0.014,2.026-0.263,3.987,1.468
					C105.209,243.3,106.527,248.119,106.411,255.225z"/>
				<path style="fill:#017457;" d="M114.727,224.582c1.402-4.679,2.885-9.403,5.497-13.531c5.04-7.963,14.009-13.289,17.398-22.083
					c0.449,6.372,0.812,13.927-0.588,20.159c-0.862,3.837-2.672,7.802-6.162,9.613c-1.59,0.825-3.388,1.127-5.133,1.533
					c-3.81,0.888-7.492,2.324-10.897,4.25C114.686,224.118,114.602,225,114.727,224.582z"/>
				<path style="fill:#017457;" d="M124.229,224.29c4.18-1.301,7.317,2.128,13.959-2.135c0.814,3.413-0.915,7.27-4.005,8.933
					c-3.949,2.125-8.856,0.654-13.239,1.599c-1.42,0.306-6.923,2.531-6.923,2.531S114.574,227.296,124.229,224.29z"/>
				<path style="fill:#017457;" d="M109.1,255.229c-0.021-0.825-0.477-20.229,1.532-24.761c0.819-1.847,2.836-5.258,7.797-11.021
					c0.149-0.173,0.243-0.282,0.269-0.316l0.499,0.379c-0.028,0.037-0.13,0.156-0.293,0.346c-4.911,5.706-6.897,9.058-7.699,10.867
					c-1.951,4.403-1.483,24.29-1.478,24.49L109.1,255.229z"/>
				<path style="fill:#017457;" d="M109.702,246.062l-0.628-0.01c0.011-0.699,1.07-6.97,4.713-11.044
					c3.69-4.126,7.606-5.103,7.771-5.143l0.147,0.61c-0.038,0.01-3.899,0.98-7.449,4.951
					C110.764,239.331,109.711,245.486,109.702,246.062z"/>
				<path style="fill:#017457;" d="M109.478,237.411c-4.546-9.087,1.814-21.975,2.088-22.519l0.561,0.281
					c-0.065,0.131-6.492,13.152-2.087,21.957L109.478,237.411z"/>
				<path style="fill:#017457;" d="M107.505,255.137c-0.007-0.162-0.663-16.161-1.716-21.537c-1.005-5.134-6.978-5.067-7.234-5.066
					l-0.013-0.628c0.069,0.002,6.756-0.083,7.864,5.572c1.062,5.423,1.72,21.471,1.726,21.633L107.505,255.137z"/>
				<path style="fill:#017457;" d="M105.801,233.642c-0.022-0.063-2.223-6.444-1.658-14.797l0.626,0.042
					c-0.556,8.226,1.602,14.485,1.624,14.547L105.801,233.642z"/>
			</g>
		</g>
		<polygon style="fill:#5E2F1F;" points="121.069,284.956 95.195,284.956 92.354,252.878 123.91,252.878 		"/>
		
			<line style="fill:none;stroke:#332737;stroke-linecap:round;stroke-linejoin:round;stroke-miterlimit:10;" x1="93.044" y1="260.125" x2="123.268" y2="260.125"/>
	</g>
</g>
</svg>
